<?xml version="1.0" encoding="UTF-8" standalone="no"?>
<!-- Created with Inkscape (http://www.inkscape.org/) -->

<svg
   xmlns:dc="http://purl.org/dc/elements/1.1/"
   xmlns:cc="http://creativecommons.org/ns#"
   xmlns:rdf="http://www.w3.org/1999/02/22-rdf-syntax-ns#"
   xmlns:svg="http://www.w3.org/2000/svg"
   xmlns="http://www.w3.org/2000/svg"
   xmlns:sodipodi="http://sodipodi.sourceforge.net/DTD/sodipodi-0.dtd"
   xmlns:inkscape="http://www.inkscape.org/namespaces/inkscape"
   width="210mm"
   height="297mm"
   viewBox="0 0 744.09448819 1052.3622047"
   id="svg2"
   version="1.1"
   inkscape:version="0.91 r13725"
   sodipodi:docname="Arsenal.svg">
  <defs
     id="defs4">
    <inkscape:path-effect
       effect="powerstroke"
       id="path-effect3542"
       is_visible="true"
       offset_points="0,0.5 | 0,0.5"
       sort_points="true"
       interpolator_type="CubicBezierJohan"
       interpolator_beta="0.2"
       start_linecap_type="zerowidth"
       linejoin_type="round"
       miter_limit="4"
       end_linecap_type="zerowidth"
       cusp_linecap_type="round" />
  </defs>
  <sodipodi:namedview
     id="base"
     pagecolor="#ffffff"
     bordercolor="#666666"
     borderopacity="1.0"
     inkscape:pageopacity="0.0"
     inkscape:pageshadow="2"
     inkscape:zoom="2.8"
     inkscape:cx="338.58199"
     inkscape:cy="899.84245"
     inkscape:document-units="px"
     inkscape:current-layer="layer1"
     showgrid="false"
     inkscape:window-width="1535"
     inkscape:window-height="876"
     inkscape:window-x="65"
     inkscape:window-y="24"
     inkscape:window-maximized="1" />
  <metadata
     id="metadata7">
    <rdf:RDF>
      <cc:Work
         rdf:about="">
        <dc:format>image/svg+xml</dc:format>
        <dc:type
           rdf:resource="http://purl.org/dc/dcmitype/StillImage" />
      </cc:Work>
    </rdf:RDF>
  </metadata>
  <g
     inkscape:label="Layer 1"
     inkscape:groupmode="layer"
     id="layer1">
    <path
       style="fill:none;fill-rule:evenodd;stroke:none;stroke-width:1px;stroke-linecap:butt;stroke-linejoin:miter;stroke-opacity:1"
       d="m 373.99468,283.60584 34.29354,-62.98245 a 0.50000114,0.49999993 0 0 0 -0.44066,-0.7391 l -11.94325,0.0364 a 0.50000262,0.49999992 0 0 0 -0.46966,0.3327 l -22.35028,62.94605 z m 0.032,-0.0718 22.23253,-62.61442 10.74687,-0.0328 -33.88971,62.24078 z"
       id="path3540"
       inkscape:path-effect="#path-effect3542"
       inkscape:original-d="m 373.55555,283.36674 34.29354,-62.98245 -11.94326,0.0364 z"
       inkscape:connector-curvature="0"
       sodipodi:nodetypes="cccc" />
    <path
       style="opacity:0.86008235;fill:none;fill-opacity:1;fill-rule:nonzero;stroke:none;stroke-width:4.98897648;stroke-linecap:round;stroke-linejoin:round;stroke-miterlimit:3.70000005;stroke-dasharray:none;stroke-opacity:1"
       d="m 374.57905,282.48366 c 0.0449,-0.18967 5.02508,-14.05336 11.06706,-30.8082 l 10.98541,-30.46333 4.59762,-0.001 4.59761,-0.001 -0.33883,0.94702 c -1.27675,3.5684 -21.60379,59.87815 -21.74232,60.23034 -0.15657,0.39805 -0.62447,0.44195 -4.71102,0.44195 -3.70607,0 -4.52223,-0.0632 -4.45553,-0.34487 z"
       id="path4361"
       inkscape:connector-curvature="0" />
    <path
       style="opacity:0.86008235;fill:none;fill-opacity:1;fill-rule:nonzero;stroke:none;stroke-width:4.98897648;stroke-linecap:round;stroke-linejoin:round;stroke-miterlimit:3.70000005;stroke-dasharray:none;stroke-opacity:1"
       d="m 374.57905,282.48366 c 0.0449,-0.18967 5.02508,-14.05336 11.06706,-30.8082 l 10.98541,-30.46333 4.59762,-0.001 4.59761,-0.001 -0.33883,0.94702 c -1.27675,3.5684 -21.60379,59.87815 -21.74232,60.23034 -0.15657,0.39805 -0.62447,0.44195 -4.71102,0.44195 -3.70607,0 -4.52223,-0.0632 -4.45553,-0.34487 z"
       id="path4363"
       inkscape:connector-curvature="0" />
    <path
       style="opacity:0.86008235;fill:none;fill-opacity:1;fill-rule:nonzero;stroke:none;stroke-width:4.98897648;stroke-linecap:round;stroke-linejoin:round;stroke-miterlimit:3.70000005;stroke-dasharray:none;stroke-opacity:1"
       d="m 201.10594,282.26613 c 0.27454,-0.71346 15.18729,-35.0803 19.26183,-44.38939 5.55467,-12.69074 6.91936,-15.73656 7.15949,-15.97905 0.10643,-0.10747 2.19044,-0.1643 4.63113,-0.12627 l 4.43762,0.0692 -1.24743,2.77791 c -2.00868,4.47318 -11.53222,26.30233 -18.6198,42.67895 l -6.55771,15.15229 -4.59442,0.0689 c -3.63798,0.0546 -4.56866,0.002 -4.47071,-0.25253 z"
       id="path4365"
       inkscape:connector-curvature="0" />
    <path
       style="opacity:0.86008235;fill:none;fill-opacity:1;fill-rule:nonzero;stroke:none;stroke-width:4.98897648;stroke-linecap:round;stroke-linejoin:round;stroke-miterlimit:3.70000005;stroke-dasharray:none;stroke-opacity:1"
       d="m 201.10594,282.26613 c 0.27454,-0.71346 15.18729,-35.0803 19.26183,-44.38939 5.55467,-12.69074 6.91936,-15.73656 7.15949,-15.97905 0.10643,-0.10747 2.19044,-0.1643 4.63113,-0.12627 l 4.43762,0.0692 -1.24743,2.77791 c -2.00868,4.47318 -11.53222,26.30233 -18.6198,42.67895 l -6.55771,15.15229 -4.59442,0.0689 c -3.63798,0.0546 -4.56866,0.002 -4.47071,-0.25253 z"
       id="path4367"
       inkscape:connector-curvature="0" />
    <path
       style="opacity:0.86008235;fill:none;fill-opacity:1;fill-rule:nonzero;stroke:none;stroke-width:4.98897648;stroke-linecap:round;stroke-linejoin:round;stroke-miterlimit:3.70000005;stroke-dasharray:none;stroke-opacity:1"
       d="m 201.10594,282.26613 c 0.27454,-0.71346 15.18729,-35.0803 19.26183,-44.38939 5.55467,-12.69074 6.91936,-15.73656 7.15949,-15.97905 0.10643,-0.10747 2.19044,-0.1643 4.63113,-0.12627 l 4.43762,0.0692 -1.24743,2.77791 c -2.00868,4.47318 -11.53222,26.30233 -18.6198,42.67895 l -6.55771,15.15229 -4.59442,0.0689 c -3.63798,0.0546 -4.56866,0.002 -4.47071,-0.25253 z"
       id="path4369"
       inkscape:connector-curvature="0" />
    <g
       style="font-style:normal;font-variant:normal;font-weight:normal;font-stretch:normal;font-size:40px;line-height:125%;font-family:'TeX Gyre Adventor';-inkscape-font-specification:'TeX Gyre Adventor';letter-spacing:0px;word-spacing:0px;fill:#000000;fill-opacity:1;stroke:none;stroke-width:1px;stroke-linecap:butt;stroke-linejoin:miter;stroke-opacity:1"
       id="text4371">
      <path
         d="m 260.445,214.55922 0,-29.56 -4.68047,0 -12.68,29.56 3.12,0 4.32,-9.96 6.92047,0 0,9.96 z m -3,-12.64 -5.80047,0 5.80047,-13.56 z"
         id="path4395"
         inkscape:connector-curvature="0"
         sodipodi:nodetypes="ccccccccccccc" />
    </g>
    <text
       xml:space="preserve"
       style="font-style:normal;font-variant:normal;font-weight:normal;font-stretch:normal;font-size:40px;line-height:125%;font-family:'TeX Gyre Adventor';-inkscape-font-specification:'TeX Gyre Adventor';letter-spacing:0px;word-spacing:0px;fill:#000000;fill-opacity:1;stroke:none;stroke-width:1px;stroke-linecap:butt;stroke-linejoin:miter;stroke-opacity:1"
       x="258.22025"
       y="214.69321"
       id="text4416"
       sodipodi:linespacing="125%"><tspan
         sodipodi:role="line"
         id="tspan4418"
         x="258.22025"
         y="214.69321">R</tspan></text>
    <text
       xml:space="preserve"
       style="font-style:normal;font-variant:normal;font-weight:normal;font-stretch:normal;font-size:40px;line-height:125%;font-family:'TeX Gyre Adventor';-inkscape-font-specification:'TeX Gyre Adventor';letter-spacing:0px;word-spacing:0px;fill:#000000;fill-opacity:1;stroke:none;stroke-width:1px;stroke-linecap:butt;stroke-linejoin:miter;stroke-opacity:1"
       x="281.75"
       y="214.95149"
       id="text4420"
       sodipodi:linespacing="125%"><tspan
         sodipodi:role="line"
         id="tspan4422"
         x="281.75"
         y="214.95149">senal</tspan></text>
  </g>
</svg>
